<svg xmlns="http://www.w3.org/2000/svg" viewBox="0 0 134.21 30.62"><defs><style>.cls-1,.cls-2{fill:#cc1f27;}.cls-1{fill-rule:evenodd;}.cls-2{font-size:26.9px;font-family:Posterama2001W04-Bold, Posterama2001W04-Bold;}.cls-3,.cls-4{fill:#1c7cc4;}.cls-3{letter-spacing:0.02em;}.cls-4{letter-spacing:0em;}</style></defs><title>Fichier 5shcare</title><g id="Calque_2" data-name="Calque 2"><g id="Calque_1-2" data-name="Calque 1"><path class="cls-1" d="M10.61,6.16c-.15.1-.17.13-.53,1.15-.13.37-.27.73-.3.81s-.29.75-.69,1.85l-.19.51c0,.07-.13.36-.24.64-.25.7-.44,1.22-.51,1.38s-.21.55-.39,1c-.34.93-.5,1.15-.57.76,0-.23-.07-.34-.55-2-.13-.46-.28-1-.3-1.08a.87.87,0,0,0-.65-.61.75.75,0,0,0-.62.39c0,.1-.17.41-.29.69s-.25.59-.3.71l-.6,1.42c-.28.67-.59,1.38-.69,1.58L3,15.8l-1.5,0H0v.22a2.19,2.19,0,0,0,.06.45c0,.13.08.32.1.42l0,.19L2,17.1l1.79,0,.14-.18a2.33,2.33,0,0,0,.28-.51l.26-.63c.22-.51.3-.69.49-1.15.42-1,.51-1.21.57-1.21s.15.23.27.67c0,.17.11.38.14.47s.35,1.21.47,1.65c0,.15.1.34.13.42a.93.93,0,0,1,.06.28c0,.17.31.46.54.51A.68.68,0,0,0,7.85,17c.05-.12.2-.52.34-.89s.27-.73.3-.81l.19-.51c.36-1,.63-1.73.69-1.85l.19-.51.38-1,.38-1c.07-.2.15-.41.18-.46s.18-.08.19.18,0,.5.08.8.11,1.05.18,1.68.13,1.33.17,1.56a4.88,4.88,0,0,1,.07.69,5.68,5.68,0,0,0,.07.73c0,.26.09.81.13,1.23s.1,1,.13,1.35.11,1,.18,1.62c.1,1,.14,1.15.36,1.33a.78.78,0,0,0,.73,0,1.32,1.32,0,0,0,.31-.45l.68-1.5.36-.8c.15-.33.28-.61.28-.63s.11-.26.24-.55c.46-1,.68-1.46.81-1.76s.22-.49.33-.71l.2-.41,1,0c.89,0,1,0,1.09.1l.28.34a1.67,1.67,0,0,0,2.28.1,1.44,1.44,0,0,0,.47-1.16,1.44,1.44,0,0,0-.44-1.13A2,2,0,0,0,19.55,12a1.94,1.94,0,0,0-1.44.86C18,13,18,13,16.62,13c-1.58,0-1.5,0-1.83.71l-.38.83c-.11.24-.2.44-.2.45s-.26.58-.75,1.64c-.15.31-.26.58-.26.59a2.16,2.16,0,0,1-.34.63A9.59,9.59,0,0,1,12.6,16c0-.39-.1-.94-.13-1.21A6.71,6.71,0,0,1,12.4,14a4.81,4.81,0,0,0-.07-.67c0-.22-.11-.93-.17-1.56-.1-1.06-.13-1.39-.3-2.93,0-.32-.09-.92-.14-1.35-.09-1-.11-1.06-.3-1.25A.7.7,0,0,0,10.61,6.16Z"/><text class="cls-2" transform="translate(23.56 22.87)">Sh<tspan class="cls-3" x="36.59" y="0">C</tspan><tspan class="cls-4" x="56.25" y="0">ARE</tspan></text></g></g></svg>